<svg width="108" height="80" viewBox="0 0 108 80" fill="none" xmlns="http://www.w3.org/2000/svg">
<g filter="url(#filter0_bd_94_2830)">
<mask id="path-1-outside-1_94_2830" maskUnits="userSpaceOnUse" x="53" y="11" width="40" height="29" fill="black">
<rect fill="white" x="53" y="11" width="40" height="29"/>
<path fill-rule="evenodd" clip-rule="evenodd" d="M80.9801 24.4652C80.9801 24.8655 80.9624 25.2609 80.9278 25.6505C81.9957 24.577 83.3905 23.9272 84.9165 23.9272C88.2763 23.9272 91 27.0775 91 30.9636C91 34.8497 88.2763 38 84.9165 38H61.267C61.2655 38 61.264 38 61.2624 38C61.2609 38 61.2594 38 61.2578 38H61.2266V37.9999C57.7845 37.9776 55 34.7432 55 30.7566C55 26.7847 57.764 23.5594 61.1887 23.5137C61.6068 17.6268 65.8701 13 71.0676 13C76.5421 13 80.9801 18.1332 80.9801 24.4652Z"/>
</mask>
<path fill-rule="evenodd" clip-rule="evenodd" d="M80.9801 24.4652C80.9801 24.8655 80.9624 25.2609 80.9278 25.6505C81.9957 24.577 83.3905 23.9272 84.9165 23.9272C88.2763 23.9272 91 27.0775 91 30.9636C91 34.8497 88.2763 38 84.9165 38H61.267C61.2655 38 61.264 38 61.2624 38C61.2609 38 61.2594 38 61.2578 38H61.2266V37.9999C57.7845 37.9776 55 34.7432 55 30.7566C55 26.7847 57.764 23.5594 61.1887 23.5137C61.6068 17.6268 65.8701 13 71.0676 13C76.5421 13 80.9801 18.1332 80.9801 24.4652Z" fill="url(#paint0_linear_94_2830)" shape-rendering="crispEdges"/>
<path d="M80.9278 25.6505L78.9356 25.4736L78.4466 30.9805L82.3457 27.0611L80.9278 25.6505ZM61.2266 38H59.2266V40H61.2266V38ZM61.2266 37.9999H63.2266V36.0128L61.2396 35.9999L61.2266 37.9999ZM61.1887 23.5137L61.2154 25.5136L63.0535 25.489L63.1837 23.6554L61.1887 23.5137ZM82.9199 25.8274C82.9598 25.379 82.9801 24.9245 82.9801 24.4652H78.9801C78.9801 24.8064 78.965 25.1428 78.9356 25.4736L82.9199 25.8274ZM84.9165 21.9272C82.7986 21.9272 80.9089 22.8337 79.5099 24.24L82.3457 27.0611C83.0826 26.3203 83.9824 25.9272 84.9165 25.9272V21.9272ZM93 30.9636C93 26.256 89.6442 21.9272 84.9165 21.9272V25.9272C86.9085 25.9272 89 27.8989 89 30.9636H93ZM84.9165 40C89.6442 40 93 35.6712 93 30.9636H89C89 34.0282 86.9085 36 84.9165 36V40ZM84.9165 36H61.267V40H84.9165V36ZM61.2624 40C61.2639 40 61.2653 40 61.266 40C61.2664 40 61.2666 40 61.2668 40C61.267 40 61.267 40 61.267 40V36C61.2655 36 61.2641 36 61.2635 36C61.2631 36 61.2628 36 61.2626 36C61.2625 36 61.2624 36 61.2624 36V40ZM61.2578 40C61.2578 40 61.2579 40 61.258 40C61.2582 40 61.2585 40 61.2589 40C61.2595 40 61.2609 40 61.2624 40V36C61.2624 36 61.2624 36 61.2622 36C61.262 36 61.2618 36 61.2614 36C61.2607 36 61.2593 36 61.2578 36V40ZM61.2578 36H61.2266V40H61.2578V36ZM63.2266 38V37.9999H59.2266V38H63.2266ZM53 30.7566C53 35.563 56.4119 39.9688 61.2137 39.9998L61.2396 35.9999C59.1571 35.9864 57 33.9234 57 30.7566H53ZM61.162 21.5139C56.3864 21.5776 53 25.9666 53 30.7566H57C57 27.6027 59.1417 25.5412 61.2154 25.5136L61.162 21.5139ZM71.0676 11C64.5767 11 59.6676 16.7002 59.1937 23.372L63.1837 23.6554C63.5461 18.5535 67.1634 15 71.0676 15V11ZM82.9801 24.4652C82.9801 17.3117 77.91 11 71.0676 11V15C75.1743 15 78.9801 18.9546 78.9801 24.4652H82.9801Z" fill="url(#paint1_linear_94_2830)" mask="url(#path-1-outside-1_94_2830)"/>
</g>
<g filter="url(#filter1_bd_94_2830)">
<mask id="path-3-outside-2_94_2830" maskUnits="userSpaceOnUse" x="15" y="22" width="62" height="39" fill="black">
<rect fill="white" x="15" y="22" width="62" height="39"/>
<path fill-rule="evenodd" clip-rule="evenodd" d="M58.8569 40.0513C58.8569 40.6116 58.8283 41.1652 58.7725 41.7108C60.4931 40.2078 62.7403 39.298 65.1988 39.298C70.6119 39.298 75 43.7085 75 49.149C75 54.5896 70.6119 59 65.1988 59C65.1959 59 65.193 59 65.1901 59H27.0983C27.0954 59 27.0924 59 27.0895 59C27.0865 59 27.0836 59 27.0806 59H27.0318V58.9998C21.4861 58.9687 17 54.4405 17 48.8593C17 43.2985 21.4532 38.7832 26.9707 38.7192C27.6444 30.4776 34.5129 24 42.8867 24C51.7068 24 58.8569 31.1864 58.8569 40.0513Z"/>
</mask>
<path fill-rule="evenodd" clip-rule="evenodd" d="M58.8569 40.0513C58.8569 40.6116 58.8283 41.1652 58.7725 41.7108C60.4931 40.2078 62.7403 39.298 65.1988 39.298C70.6119 39.298 75 43.7085 75 49.149C75 54.5896 70.6119 59 65.1988 59C65.1959 59 65.193 59 65.1901 59H27.0983C27.0954 59 27.0924 59 27.0895 59C27.0865 59 27.0836 59 27.0806 59H27.0318V58.9998C21.4861 58.9687 17 54.4405 17 48.8593C17 43.2985 21.4532 38.7832 26.9707 38.7192C27.6444 30.4776 34.5129 24 42.8867 24C51.7068 24 58.8569 31.1864 58.8569 40.0513Z" fill="url(#paint2_linear_94_2830)" shape-rendering="crispEdges"/>
<path d="M58.7725 41.7108L56.7829 41.5074L56.2671 46.5548L60.0883 43.217L58.7725 41.7108ZM27.0318 59H25.0318V61H27.0318V59ZM27.0318 58.9998H29.0318V57.0111L27.0431 56.9999L27.0318 58.9998ZM26.9707 38.7192L26.9939 40.7191L28.8156 40.698L28.9641 38.8822L26.9707 38.7192ZM60.7622 41.9141C60.8248 41.3011 60.8569 40.6797 60.8569 40.0513H56.8569C56.8569 40.5436 56.8318 41.0294 56.7829 41.5074L60.7622 41.9141ZM65.1988 37.298C62.2371 37.298 59.527 38.3962 57.4568 40.2045L60.0883 43.217C61.4593 42.0195 63.2434 41.298 65.1988 41.298V37.298ZM77 49.149C77 42.6135 71.726 37.298 65.1988 37.298V41.298C69.4977 41.298 73 44.8035 73 49.149H77ZM65.1988 61C71.726 61 77 55.6846 77 49.149H73C73 53.4946 69.4977 57 65.1988 57V61ZM65.1901 61C65.1908 61 65.1916 61 65.1931 61C65.1945 61 65.1966 61 65.1988 61V57C65.1981 57 65.1973 57 65.1958 57C65.1944 57 65.1923 57 65.1901 57V61ZM65.1901 57H27.0983V61H65.1901V57ZM27.0895 61C27.0917 61 27.0938 61 27.0952 61C27.0968 61 27.0976 61 27.0983 61V57C27.0961 57 27.094 57 27.0926 57C27.091 57 27.0902 57 27.0895 57V61ZM27.0806 61C27.0813 61 27.0822 61 27.0837 61C27.0851 61 27.0872 61 27.0895 61V57C27.0887 57 27.0879 57 27.0863 57C27.085 57 27.0828 57 27.0806 57V61ZM27.0806 57H27.0318V61H27.0806V57ZM29.0318 59V58.9998H25.0318V59H29.0318ZM15 48.8593C15 55.5318 20.3658 60.9624 27.0206 60.9998L27.0431 56.9999C22.6063 56.9749 19 53.3492 19 48.8593H15ZM26.9475 36.7194C20.3264 36.7961 15 42.2111 15 48.8593H19C19 44.3859 22.5799 40.7703 26.9939 40.7191L26.9475 36.7194ZM42.8867 22C33.4545 22 25.7345 29.2937 24.9774 38.5563L28.9641 38.8822C29.5543 31.6614 35.5713 26 42.8867 26V22ZM60.8569 40.0513C60.8569 30.0914 52.8209 22 42.8867 22V26C50.5927 26 56.8569 32.2814 56.8569 40.0513H60.8569Z" fill="url(#paint3_linear_94_2830)" mask="url(#path-3-outside-2_94_2830)"/>
</g>
<defs>
<filter id="filter0_bd_94_2830" x="38" y="0" width="70" height="59" filterUnits="userSpaceOnUse" color-interpolation-filters="sRGB">
<feFlood flood-opacity="0" result="BackgroundImageFix"/>
<feGaussianBlur in="BackgroundImageFix" stdDeviation="5"/>
<feComposite in2="SourceAlpha" operator="in" result="effect1_backgroundBlur_94_2830"/>
<feColorMatrix in="SourceAlpha" type="matrix" values="0 0 0 0 0 0 0 0 0 0 0 0 0 0 0 0 0 0 127 0" result="hardAlpha"/>
<feOffset dy="4"/>
<feGaussianBlur stdDeviation="7.5"/>
<feComposite in2="hardAlpha" operator="out"/>
<feColorMatrix type="matrix" values="0 0 0 0 0 0 0 0 0 0 0 0 0 0 0 0 0 0 0.1 0"/>
<feBlend mode="normal" in2="effect1_backgroundBlur_94_2830" result="effect2_dropShadow_94_2830"/>
<feBlend mode="normal" in="SourceGraphic" in2="effect2_dropShadow_94_2830" result="shape"/>
</filter>
<filter id="filter1_bd_94_2830" x="0" y="11" width="92" height="69" filterUnits="userSpaceOnUse" color-interpolation-filters="sRGB">
<feFlood flood-opacity="0" result="BackgroundImageFix"/>
<feGaussianBlur in="BackgroundImageFix" stdDeviation="5"/>
<feComposite in2="SourceAlpha" operator="in" result="effect1_backgroundBlur_94_2830"/>
<feColorMatrix in="SourceAlpha" type="matrix" values="0 0 0 0 0 0 0 0 0 0 0 0 0 0 0 0 0 0 127 0" result="hardAlpha"/>
<feOffset dy="4"/>
<feGaussianBlur stdDeviation="7.5"/>
<feComposite in2="hardAlpha" operator="out"/>
<feColorMatrix type="matrix" values="0 0 0 0 0 0 0 0 0 0 0 0 0 0 0 0 0 0 0.1 0"/>
<feBlend mode="normal" in2="effect1_backgroundBlur_94_2830" result="effect2_dropShadow_94_2830"/>
<feBlend mode="normal" in="SourceGraphic" in2="effect2_dropShadow_94_2830" result="shape"/>
</filter>
<linearGradient id="paint0_linear_94_2830" x1="66.1892" y1="12.8957" x2="77.2639" y2="36.9943" gradientUnits="userSpaceOnUse">
<stop stop-color="white"/>
<stop offset="0.708333" stop-color="#9DDCFF" stop-opacity="0.69"/>
</linearGradient>
<linearGradient id="paint1_linear_94_2830" x1="71.8324" y1="4.34286" x2="87.3681" y2="46.9311" gradientUnits="userSpaceOnUse">
<stop stop-color="white"/>
<stop offset="0.713542" stop-color="#85C6EC" stop-opacity="0.71"/>
</linearGradient>
<linearGradient id="paint2_linear_94_2830" x1="35.027" y1="23.854" x2="49.101" y2="59.097" gradientUnits="userSpaceOnUse">
<stop stop-color="white"/>
<stop offset="0.708333" stop-color="#9DDCFF" stop-opacity="0.69"/>
</linearGradient>
<linearGradient id="paint3_linear_94_2830" x1="44.1189" y1="11.88" x2="63.5785" y2="73.2692" gradientUnits="userSpaceOnUse">
<stop stop-color="white"/>
<stop offset="0.713542" stop-color="#85C6EC" stop-opacity="0.71"/>
</linearGradient>
</defs>
</svg>
