<svg width="93" height="71" viewBox="0 0 93 71" fill="none" xmlns="http://www.w3.org/2000/svg">
<path d="M64.1129 35.393C71.7088 35.393 77.827 29.0969 77.827 21.3796C77.827 13.6623 71.7088 7.36621 64.1129 7.36621C56.5171 7.36621 50.3989 13.6623 50.3989 21.3796C50.3989 29.0969 56.5171 35.393 64.1129 35.393Z" fill="url(#paint0_linear_94_2824)" stroke="url(#paint1_linear_94_2824)" stroke-width="2"/>
<path fill-rule="evenodd" clip-rule="evenodd" d="M64.1129 0C63.486 0 62.9778 0.508238 62.9778 1.13518V4.90674C62.9778 5.53369 63.486 6.04193 64.1129 6.04193C64.7399 6.04193 65.2481 5.53369 65.2481 4.90674V1.13518C65.2481 0.508239 64.7399 0 64.1129 0ZM64.1129 36.7163C63.486 36.7163 62.9777 37.2246 62.9777 37.8515V41.6231C62.9777 42.25 63.486 42.7582 64.1129 42.7582C64.7399 42.7582 65.2481 42.25 65.2481 41.6231V37.8515C65.2481 37.2246 64.7399 36.7163 64.1129 36.7163ZM72.9956 3.28613C73.3072 2.73228 74.003 2.54588 74.5498 2.8698C75.0965 3.19372 75.2871 3.90529 74.9755 4.45914L73.1662 7.67484C72.8546 8.22869 72.1588 8.41508 71.612 8.09116C71.0653 7.76724 70.8747 7.05567 71.1863 6.50183L72.9956 3.28613ZM56.6139 34.6671C56.0671 34.3432 55.3713 34.5296 55.0597 35.0834L53.2504 38.2991C52.9388 38.8529 53.1294 39.5645 53.6761 39.8884C54.2229 40.2124 54.9187 40.026 55.2303 39.4721L57.0396 36.2564C57.3512 35.7026 57.1606 34.991 56.6139 34.6671ZM80.6587 10.2677C81.2035 9.94495 81.8968 10.1307 82.2073 10.6825C82.5178 11.2344 82.3279 11.9434 81.7831 12.2662L78.6331 14.1324C78.0883 14.4551 77.395 14.2694 77.0845 13.7175C76.774 13.1657 76.9639 12.4567 77.5087 12.1339L80.6587 10.2677ZM51.1415 29.0407C50.831 28.4888 50.1376 28.3031 49.5928 28.6259L46.4428 30.4921C45.898 30.8148 45.7081 31.5238 46.0186 32.0757C46.3291 32.6276 47.0224 32.8133 47.5672 32.4905L50.7172 30.6243C51.262 30.3016 51.452 29.5926 51.1415 29.0407ZM83.8384 20.2172C84.4801 20.2172 85.0003 20.7374 85.0003 21.3791C85.0003 22.0208 84.4801 22.541 83.8384 22.541H80.2593C79.6176 22.541 79.0974 22.0208 79.0974 21.3791C79.0974 20.7374 79.6176 20.2172 80.2593 20.2172H83.8384ZM49.1285 21.3791C49.1285 20.7374 48.6083 20.2172 47.9666 20.2172H44.3875C43.7458 20.2172 43.2256 20.7374 43.2256 21.3791C43.2256 22.0208 43.7458 22.541 44.3875 22.541H47.9666C48.6083 22.541 49.1285 22.0208 49.1285 21.3791ZM81.7831 30.4921C82.3279 30.8148 82.5178 31.5238 82.2073 32.0757C81.8968 32.6275 81.2035 32.8133 80.6587 32.4905L77.5087 30.6243C76.9639 30.3016 76.774 29.5926 77.0845 29.0407C77.395 28.4888 78.0883 28.3031 78.6331 28.6259L81.7831 30.4921ZM51.1415 13.7175C51.452 13.1657 51.262 12.4567 50.7172 12.1339L47.5672 10.2677C47.0224 9.94495 46.3291 10.1307 46.0186 10.6825C45.7081 11.2344 45.898 11.9434 46.4428 12.2662L49.5928 14.1324C50.1376 14.4551 50.831 14.2694 51.1415 13.7175ZM74.9755 38.2991C75.2871 38.8529 75.0965 39.5645 74.5498 39.8884C74.003 40.2123 73.3072 40.0259 72.9956 39.4721L71.1863 36.2564C70.8747 35.7026 71.0653 34.991 71.612 34.6671C72.1588 34.3431 72.8546 34.5295 73.1662 35.0834L74.9755 38.2991ZM56.6139 8.09115C57.1606 7.76724 57.3512 7.05567 57.0396 6.50182L55.2303 3.28612C54.9187 2.73227 54.2229 2.54588 53.6761 2.86979C53.1294 3.19371 52.9388 3.90528 53.2504 4.45913L55.0597 7.67483C55.3713 8.22868 56.0671 8.41507 56.6139 8.09115Z" fill="url(#paint2_linear_94_2824)"/>
<g filter="url(#filter0_bd_94_2824)">
<mask id="path-3-outside-1_94_2824" maskUnits="userSpaceOnUse" x="15" y="12.2529" width="63" height="40" fill="black">
<rect fill="white" x="15" y="12.2529" width="63" height="40"/>
<path fill-rule="evenodd" clip-rule="evenodd" d="M58.9794 30.647C58.9794 31.2192 58.9508 31.7847 58.8948 32.3418C60.6205 30.8068 62.8742 29.8776 65.3399 29.8776C70.7688 29.8776 75.1698 34.3822 75.1698 39.9389C75.1698 45.4956 70.7688 50.0002 65.3399 50.0002C65.337 50.0002 65.3341 50.0002 65.3313 50.0002H27.1278C27.1249 50.0002 27.1219 50.0002 27.119 50.0002C27.1161 50.0002 27.1131 50.0002 27.1102 50.0002H27.0612V50C21.4992 49.9682 17 45.3434 17 39.643C17 33.9635 21.4662 29.3517 26.9999 29.2864C27.6755 20.8688 34.5642 14.2529 42.9625 14.2529C51.8084 14.2529 58.9794 21.5928 58.9794 30.647Z"/>
</mask>
<path fill-rule="evenodd" clip-rule="evenodd" d="M58.9794 30.647C58.9794 31.2192 58.9508 31.7847 58.8948 32.3418C60.6205 30.8068 62.8742 29.8776 65.3399 29.8776C70.7688 29.8776 75.1698 34.3822 75.1698 39.9389C75.1698 45.4956 70.7688 50.0002 65.3399 50.0002C65.337 50.0002 65.3341 50.0002 65.3313 50.0002H27.1278C27.1249 50.0002 27.1219 50.0002 27.119 50.0002C27.1161 50.0002 27.1131 50.0002 27.1102 50.0002H27.0612V50C21.4992 49.9682 17 45.3434 17 39.643C17 33.9635 21.4662 29.3517 26.9999 29.2864C27.6755 20.8688 34.5642 14.2529 42.9625 14.2529C51.8084 14.2529 58.9794 21.5928 58.9794 30.647Z" fill="url(#paint3_linear_94_2824)" shape-rendering="crispEdges"/>
<path d="M58.8948 32.3418L56.9048 32.1421L56.3929 37.2442L60.2241 33.8361L58.8948 32.3418ZM27.0612 50.0002H25.0612V52.0002H27.0612V50.0002ZM27.0612 50H29.0612V48.0114L27.0726 48.0001L27.0612 50ZM26.9999 29.2864L27.0235 31.2863L28.8475 31.2648L28.9935 29.4464L26.9999 29.2864ZM60.8848 32.5415C60.9474 31.9181 60.9794 31.286 60.9794 30.647H56.9794C56.9794 31.1524 56.9541 31.6512 56.9048 32.1421L60.8848 32.5415ZM65.3399 27.8776C62.3602 27.8776 59.6391 29.0029 57.5656 30.8475L60.2241 33.8361C61.6018 32.6107 63.3881 31.8776 65.3399 31.8776V27.8776ZM77.1698 39.9389C77.1698 33.3217 71.917 27.8776 65.3399 27.8776V31.8776C69.6206 31.8776 73.1698 35.4426 73.1698 39.9389H77.1698ZM65.3399 52.0002C71.917 52.0002 77.1698 46.556 77.1698 39.9389H73.1698C73.1698 44.4351 69.6206 48.0002 65.3399 48.0002V52.0002ZM65.3313 52.0002C65.3319 52.0002 65.3327 52.0002 65.3343 52.0002C65.3356 52.0002 65.3377 52.0002 65.3399 52.0002V48.0002C65.3392 48.0002 65.3385 48.0002 65.3369 48.0002C65.3356 48.0002 65.3335 48.0002 65.3313 48.0002V52.0002ZM65.3313 48.0002H27.1278V52.0002H65.3313V48.0002ZM27.119 52.0002C27.1212 52.0002 27.1233 52.0002 27.1247 52.0002C27.1263 52.0002 27.1271 52.0002 27.1278 52.0002V48.0002C27.1256 48.0002 27.1234 48.0002 27.1221 48.0002C27.1205 48.0002 27.1197 48.0002 27.119 48.0002V52.0002ZM27.1102 52.0002C27.1109 52.0002 27.1117 52.0002 27.1133 52.0002C27.1147 52.0002 27.1168 52.0002 27.119 52.0002V48.0002C27.1183 48.0002 27.1175 48.0002 27.1159 48.0002C27.1146 48.0002 27.1124 48.0002 27.1102 48.0002V52.0002ZM27.1102 48.0002H27.0612V52.0002H27.1102V48.0002ZM29.0612 50.0002V50H25.0612V50.0002H29.0612ZM15 39.643C15 46.4003 20.345 51.9616 27.0497 52L27.0726 48.0001C22.6534 47.9747 19 44.2864 19 39.643H15ZM26.9763 27.2866C20.3057 27.3653 15 32.9102 15 39.643H19C19 35.0168 22.6267 31.3382 27.0235 31.2863L26.9763 27.2866ZM42.9625 12.2529C33.4746 12.2529 25.7615 19.7171 25.0063 29.1264L28.9935 29.4464C29.5895 22.0205 35.6537 16.2529 42.9625 16.2529V12.2529ZM60.9794 30.647C60.9794 20.5323 52.9566 12.2529 42.9625 12.2529V16.2529C50.6602 16.2529 56.9794 22.6532 56.9794 30.647H60.9794Z" fill="url(#paint4_linear_94_2824)" mask="url(#path-3-outside-1_94_2824)"/>
</g>
<defs>
<filter id="filter0_bd_94_2824" x="0" y="1.25293" width="92.1698" height="69.7471" filterUnits="userSpaceOnUse" color-interpolation-filters="sRGB">
<feFlood flood-opacity="0" result="BackgroundImageFix"/>
<feGaussianBlur in="BackgroundImageFix" stdDeviation="5"/>
<feComposite in2="SourceAlpha" operator="in" result="effect1_backgroundBlur_94_2824"/>
<feColorMatrix in="SourceAlpha" type="matrix" values="0 0 0 0 0 0 0 0 0 0 0 0 0 0 0 0 0 0 127 0" result="hardAlpha"/>
<feOffset dy="4"/>
<feGaussianBlur stdDeviation="7.5"/>
<feComposite in2="hardAlpha" operator="out"/>
<feColorMatrix type="matrix" values="0 0 0 0 0 0 0 0 0 0 0 0 0 0 0 0 0 0 0.1 0"/>
<feBlend mode="normal" in2="effect1_backgroundBlur_94_2824" result="effect2_dropShadow_94_2824"/>
<feBlend mode="normal" in="SourceGraphic" in2="effect2_dropShadow_94_2824" result="shape"/>
</filter>
<linearGradient id="paint0_linear_94_2824" x1="71.2646" y1="10.2253" x2="59.2844" y2="34.2751" gradientUnits="userSpaceOnUse">
<stop offset="0.182844" stop-color="#FFE600"/>
<stop offset="0.980542" stop-color="#F09000"/>
</linearGradient>
<linearGradient id="paint1_linear_94_2824" x1="57.6186" y1="5.39016" x2="76.2439" y2="49.0984" gradientUnits="userSpaceOnUse">
<stop stop-color="#FFE600"/>
<stop offset="1" stop-color="#9C8D00"/>
</linearGradient>
<linearGradient id="paint2_linear_94_2824" x1="79.4379" y1="5.57716" x2="47.6097" y2="42.0268" gradientUnits="userSpaceOnUse">
<stop stop-color="#FFE600"/>
<stop offset="1" stop-color="#AA9900"/>
</linearGradient>
<linearGradient id="paint3_linear_94_2824" x1="35.0798" y1="14.1039" x2="49.644" y2="49.9167" gradientUnits="userSpaceOnUse">
<stop stop-color="white"/>
<stop offset="0.708333" stop-color="#9DDCFF" stop-opacity="0.69"/>
</linearGradient>
<linearGradient id="paint4_linear_94_2824" x1="44.1983" y1="1.87416" x2="64.3702" y2="64.3625" gradientUnits="userSpaceOnUse">
<stop stop-color="white"/>
<stop offset="0.713542" stop-color="#85C6EC" stop-opacity="0.71"/>
</linearGradient>
</defs>
</svg>
