<svg width="25" height="24" viewBox="0 0 25 24" fill="none" xmlns="http://www.w3.org/2000/svg">
<path d="M22.5493 20.2894L18.8393 16.6094C20.2794 14.8138 20.9768 12.5347 20.7881 10.2407C20.5994 7.94672 19.5389 5.8122 17.8248 4.27606C16.1106 2.73992 13.8731 1.91893 11.5722 1.98189C9.2713 2.04485 7.08198 2.98698 5.4544 4.61456C3.82682 6.24214 2.88469 8.43145 2.82173 10.7323C2.75877 13.0332 3.57977 15.2708 5.1159 16.9849C6.65204 18.6991 8.78656 19.7595 11.0806 19.9482C13.3746 20.1369 15.6537 19.4395 17.4493 17.9994L21.1293 21.6794C21.2222 21.7731 21.3328 21.8475 21.4547 21.8983C21.5765 21.9491 21.7072 21.9752 21.8393 21.9752C21.9713 21.9752 22.102 21.9491 22.2238 21.8983C22.3457 21.8475 22.4563 21.7731 22.5493 21.6794C22.7295 21.493 22.8302 21.2438 22.8302 20.9844C22.8302 20.7251 22.7295 20.4759 22.5493 20.2894ZM11.8393 17.9994C10.4548 17.9994 9.10141 17.5889 7.95027 16.8197C6.79912 16.0505 5.90192 14.9573 5.3721 13.6782C4.84229 12.3991 4.70367 10.9917 4.97376 9.63378C5.24386 8.27592 5.91054 7.02864 6.88951 6.04967C7.86848 5.0707 9.11576 4.40402 10.4736 4.13392C11.8315 3.86382 13.239 4.00245 14.518 4.53226C15.7971 5.06207 16.8904 5.95928 17.6595 7.11042C18.4287 8.26157 18.8393 9.61495 18.8393 10.9994C18.8393 12.8559 18.1018 14.6364 16.789 15.9492C15.4763 17.2619 13.6958 17.9994 11.8393 17.9994Z" fill="#080338"/>
</svg>
