<svg width="66" height="54" viewBox="0 0 66 54" fill="none" xmlns="http://www.w3.org/2000/svg">
<mask id="path-1-outside-1_1803_377" maskUnits="userSpaceOnUse" x="30.0088" y="3.87988" width="24" height="25" fill="black">
<rect fill="white" x="30.0088" y="3.87988" width="24" height="25"/>
<path fill-rule="evenodd" clip-rule="evenodd" d="M48.9999 22.7589C48.7719 22.7751 48.5417 22.7833 48.3096 22.7833C42.9891 22.7833 38.676 18.4564 38.676 13.1189C38.676 10.7409 39.5322 8.56342 40.9521 6.87988C35.9538 7.23488 32.0088 11.4152 32.0088 16.5199C32.0088 21.8574 36.3219 26.1843 41.6424 26.1843C44.5924 26.1843 47.2327 24.8541 48.9999 22.7589Z"/>
</mask>
<path fill-rule="evenodd" clip-rule="evenodd" d="M48.9999 22.7589C48.7719 22.7751 48.5417 22.7833 48.3096 22.7833C42.9891 22.7833 38.676 18.4564 38.676 13.1189C38.676 10.7409 39.5322 8.56342 40.9521 6.87988C35.9538 7.23488 32.0088 11.4152 32.0088 16.5199C32.0088 21.8574 36.3219 26.1843 41.6424 26.1843C44.5924 26.1843 47.2327 24.8541 48.9999 22.7589Z" fill="url(#paint0_linear_1803_377)"/>
<path d="M48.9999 22.7589L50.5287 24.0484L53.5818 20.4284L48.8582 20.7639L48.9999 22.7589ZM40.9521 6.87988L42.481 8.16934L45.5341 4.54942L40.8104 4.88491L40.9521 6.87988ZM48.8582 20.7639C48.6773 20.7768 48.4944 20.7833 48.3096 20.7833V24.7833C48.589 24.7833 48.8665 24.7734 49.1415 24.7539L48.8582 20.7639ZM48.3096 20.7833C44.0997 20.7833 40.676 17.3579 40.676 13.1189H36.676C36.676 19.555 41.8785 24.7833 48.3096 24.7833V20.7833ZM40.676 13.1189C40.676 11.2295 41.3543 9.50512 42.481 8.16934L39.4233 5.59042C37.71 7.62173 36.676 10.2522 36.676 13.1189H40.676ZM34.0088 16.5199C34.0088 12.4669 37.1404 9.15564 41.0938 8.87486L40.8104 4.88491C34.7673 5.31411 30.0088 10.3635 30.0088 16.5199H34.0088ZM41.6424 24.1843C37.4325 24.1843 34.0088 20.7588 34.0088 16.5199H30.0088C30.0088 22.9559 35.2113 28.1843 41.6424 28.1843V24.1843ZM47.471 21.4694C46.0668 23.1343 43.977 24.1843 41.6424 24.1843V28.1843C45.2078 28.1843 48.3986 26.5738 50.5287 24.0484L47.471 21.4694Z" fill="url(#paint1_linear_1803_377)" mask="url(#path-1-outside-1_1803_377)"/>
<g filter="url(#filter0_bd_1803_377)">
<mask id="path-3-outside-2_1803_377" maskUnits="userSpaceOnUse" x="15" y="11.8389" width="36" height="24" fill="black">
<rect fill="white" x="15" y="11.8389" width="36" height="24"/>
<path fill-rule="evenodd" clip-rule="evenodd" d="M39.8138 22.5712C39.8138 22.876 39.7982 23.1772 39.7678 23.4739C40.7056 22.6563 41.9304 22.1613 43.2704 22.1613C46.2208 22.1613 48.6125 24.5607 48.6125 27.5205C48.6125 30.4803 46.2208 32.8797 43.2704 32.8797H22.5038C22.5023 32.8797 22.5007 32.8797 22.4992 32.8797C22.4977 32.8797 22.4961 32.8797 22.4946 32.8797H22.4678V32.8796C19.4451 32.8626 17 30.3992 17 27.3629C17 24.3377 19.4272 21.8813 22.4345 21.8465C22.8016 17.3628 26.5453 13.8389 31.1094 13.8389C35.9167 13.8389 39.8138 17.7484 39.8138 22.5712Z"/>
</mask>
<path fill-rule="evenodd" clip-rule="evenodd" d="M39.8138 22.5712C39.8138 22.876 39.7982 23.1772 39.7678 23.4739C40.7056 22.6563 41.9304 22.1613 43.2704 22.1613C46.2208 22.1613 48.6125 24.5607 48.6125 27.5205C48.6125 30.4803 46.2208 32.8797 43.2704 32.8797H22.5038C22.5023 32.8797 22.5007 32.8797 22.4992 32.8797C22.4977 32.8797 22.4961 32.8797 22.4946 32.8797H22.4678V32.8796C19.4451 32.8626 17 30.3992 17 27.3629C17 24.3377 19.4272 21.8813 22.4345 21.8465C22.8016 17.3628 26.5453 13.8389 31.1094 13.8389C35.9167 13.8389 39.8138 17.7484 39.8138 22.5712Z" fill="url(#paint2_linear_1803_377)" shape-rendering="crispEdges"/>
<path d="M39.7678 23.4739L37.7782 23.2702L37.2621 28.312L41.0822 24.9814L39.7678 23.4739ZM22.4678 32.8797H20.4678V34.8797H22.4678V32.8797ZM22.4678 32.8796H24.4678V30.8908L22.479 30.8796L22.4678 32.8796ZM22.4345 21.8465L22.4576 23.8463L24.2791 23.8253L24.4278 22.0097L22.4345 21.8465ZM41.7574 23.6776C41.7947 23.3133 41.8138 22.9441 41.8138 22.5712H37.8138C37.8138 22.8078 37.8017 23.041 37.7782 23.2702L41.7574 23.6776ZM43.2704 20.1613C41.4283 20.1613 39.7411 20.8439 38.4535 21.9664L41.0822 24.9814C41.6702 24.4687 42.4325 24.1613 43.2704 24.1613V20.1613ZM50.6125 27.5205C50.6125 23.4622 47.3314 20.1613 43.2704 20.1613V24.1613C45.1102 24.1613 46.6125 25.6593 46.6125 27.5205H50.6125ZM43.2704 34.8797C47.3314 34.8797 50.6125 31.5788 50.6125 27.5205H46.6125C46.6125 29.3817 45.1102 30.8797 43.2704 30.8797V34.8797ZM43.2704 30.8797H22.5038V34.8797H43.2704V30.8797ZM22.4992 34.8797C22.5007 34.8797 22.5021 34.8797 22.5027 34.8797C22.5032 34.8797 22.5034 34.8797 22.5036 34.8797C22.5038 34.8797 22.5038 34.8797 22.5038 34.8797V30.8797C22.5023 30.8797 22.5009 30.8797 22.5003 30.8797C22.4999 30.8797 22.4996 30.8797 22.4994 30.8797C22.4992 30.8797 22.4992 30.8797 22.4992 30.8797V34.8797ZM22.4946 34.8797C22.4946 34.8797 22.4946 34.8797 22.4948 34.8797C22.495 34.8797 22.4952 34.8797 22.4956 34.8797C22.4963 34.8797 22.4977 34.8797 22.4992 34.8797V30.8797C22.4992 30.8797 22.4992 30.8797 22.499 30.8797C22.4988 30.8797 22.4985 30.8797 22.4981 30.8797C22.4975 30.8797 22.4961 30.8797 22.4946 30.8797V34.8797ZM22.4946 30.8797H22.4678V34.8797H22.4946V30.8797ZM24.4678 32.8797V32.8796H20.4678V32.8797H24.4678ZM15 27.3629C15 31.494 18.3284 34.8564 22.4565 34.8795L22.479 30.8796C20.5619 30.8688 19 29.3044 19 27.3629H15ZM22.4113 19.8466C18.3039 19.8941 15 23.2468 15 27.3629H19C19 25.4286 20.5504 23.8684 22.4576 23.8463L22.4113 19.8466ZM31.1094 11.8389C25.4901 11.8389 20.8922 16.1757 20.4411 21.6832L24.4278 22.0097C24.7111 18.55 27.6004 15.8389 31.1094 15.8389V11.8389ZM41.8138 22.5712C41.8138 16.6499 37.0273 11.8389 31.1094 11.8389V15.8389C34.8061 15.8389 37.8138 18.847 37.8138 22.5712H41.8138Z" fill="url(#paint3_linear_1803_377)" mask="url(#path-3-outside-2_1803_377)"/>
</g>
<defs>
<filter id="filter0_bd_1803_377" x="0" y="0.838867" width="65.6125" height="53.041" filterUnits="userSpaceOnUse" color-interpolation-filters="sRGB">
<feFlood flood-opacity="0" result="BackgroundImageFix"/>
<feGaussianBlur in="BackgroundImageFix" stdDeviation="5"/>
<feComposite in2="SourceAlpha" operator="in" result="effect1_backgroundBlur_1803_377"/>
<feColorMatrix in="SourceAlpha" type="matrix" values="0 0 0 0 0 0 0 0 0 0 0 0 0 0 0 0 0 0 127 0" result="hardAlpha"/>
<feOffset dy="4"/>
<feGaussianBlur stdDeviation="7.5"/>
<feComposite in2="hardAlpha" operator="out"/>
<feColorMatrix type="matrix" values="0 0 0 0 0 0 0 0 0 0 0 0 0 0 0 0 0 0 0.1 0"/>
<feBlend mode="normal" in2="effect1_backgroundBlur_1803_377" result="effect2_dropShadow_1803_377"/>
<feBlend mode="normal" in="SourceGraphic" in2="effect2_dropShadow_1803_377" result="shape"/>
</filter>
<linearGradient id="paint0_linear_1803_377" x1="42.2922" y1="13.0339" x2="38.2002" y2="26.1769" gradientUnits="userSpaceOnUse">
<stop stop-color="#FFEFB8"/>
<stop offset="1" stop-color="#FFD600"/>
</linearGradient>
<linearGradient id="paint1_linear_1803_377" x1="31.1895" y1="3.93629" x2="46.2055" y2="29.5151" gradientUnits="userSpaceOnUse">
<stop stop-color="#FFF2AF"/>
<stop offset="1" stop-color="#CEBA00"/>
</linearGradient>
<linearGradient id="paint2_linear_1803_377" x1="27.0301" y1="15.8001" x2="37.1037" y2="32.1569" gradientUnits="userSpaceOnUse">
<stop stop-color="#52ACFF"/>
<stop offset="1" stop-color="#052D93" stop-opacity="0.71"/>
</linearGradient>
<linearGradient id="paint3_linear_1803_377" x1="37.2463" y1="39.2079" x2="27.3525" y2="11.3915" gradientUnits="userSpaceOnUse">
<stop stop-color="#0066FF"/>
<stop offset="1" stop-color="#00378A" stop-opacity="0.34"/>
</linearGradient>
</defs>
</svg>
