<svg width="93" height="68" viewBox="0 0 93 68" fill="none" xmlns="http://www.w3.org/2000/svg">
<path d="M64.1126 33.2876C71.6183 33.2876 77.8266 27.6056 77.8266 20.449C77.8266 13.2924 71.6183 7.61035 64.1126 7.61035C56.607 7.61035 50.3986 13.2924 50.3986 20.449C50.3986 27.6056 56.607 33.2876 64.1126 33.2876Z" fill="url(#paint0_linear_94_2820)" stroke="url(#paint1_linear_94_2820)" stroke-width="2"/>
<path fill-rule="evenodd" clip-rule="evenodd" d="M64.1126 1C63.4857 1 62.9774 1.50824 62.9774 2.13518V5.36133C62.9774 5.98827 63.4857 6.49651 64.1126 6.49651C64.7396 6.49651 65.2478 5.98827 65.2478 5.36133V2.13518C65.2478 1.50824 64.7396 1 64.1126 1ZM64.1126 34.4019C63.4857 34.4019 62.9774 34.9101 62.9774 35.537V38.7632C62.9774 39.3901 63.4857 39.8984 64.1126 39.8984C64.7396 39.8984 65.2478 39.3901 65.2478 38.7632V35.537C65.2478 34.9101 64.7396 34.4019 64.1126 34.4019ZM73.0372 4.002C73.3563 3.49124 74.0458 3.30698 74.5772 3.59046C75.1086 3.87393 75.2807 4.51779 74.9615 5.02856L73.1239 7.96949C72.8047 8.48026 72.1153 8.66451 71.5839 8.38104C71.0525 8.09756 70.8804 7.4537 71.1996 6.94293L73.0372 4.002ZM56.6414 32.5173C56.11 32.2338 55.4205 32.4181 55.1014 32.9289L53.2638 35.8698C52.9446 36.3806 53.1167 37.0244 53.6481 37.3079C54.1794 37.5914 54.8689 37.4071 55.1881 36.8964L57.0257 33.9554C57.3448 33.4447 57.1728 32.8008 56.6414 32.5173ZM80.6277 10.3281C81.165 10.0415 81.8621 10.2278 82.1848 10.7442C82.5075 11.2606 82.3336 11.9116 81.7963 12.1982L78.6634 13.8693C78.1261 14.1559 77.4289 13.9696 77.1062 13.4532C76.7835 12.9368 76.9574 12.2858 77.4947 11.9992L80.6277 10.3281ZM51.1191 27.4452C50.7964 26.9287 50.0992 26.7424 49.5619 27.029L46.429 28.7002C45.8917 28.9868 45.7178 29.6377 46.0405 30.1541C46.3632 30.6705 47.0603 30.8568 47.5976 30.5703L50.7306 28.8991C51.2678 28.6125 51.4418 27.9616 51.1191 27.4452ZM83.9429 19.3922C84.5267 19.3922 84.9999 19.8654 84.9999 20.4492C84.9999 21.033 84.5267 21.5062 83.9429 21.5062H80.154C79.5702 21.5062 79.097 21.033 79.097 20.4492C79.097 19.8654 79.5702 19.3922 80.154 19.3922H83.9429ZM49.1283 20.4492C49.1283 19.8654 48.6551 19.3922 48.0713 19.3922H44.2824C43.6986 19.3922 43.2254 19.8654 43.2254 20.4492C43.2254 21.033 43.6986 21.5062 44.2824 21.5062H48.0713C48.6551 21.5062 49.1283 21.033 49.1283 20.4492ZM81.7963 28.7002C82.3336 28.9867 82.5075 29.6377 82.1848 30.1541C81.8621 30.6705 81.165 30.8568 80.6277 30.5702L77.4947 28.8991C76.9574 28.6125 76.7835 27.9616 77.1062 27.4451C77.4289 26.9287 78.1261 26.7424 78.6634 27.029L81.7963 28.7002ZM51.1191 13.4532C51.4418 12.9368 51.2678 12.2858 50.7306 11.9992L47.5976 10.3281C47.0603 10.0415 46.3632 10.2278 46.0405 10.7442C45.7178 11.2606 45.8917 11.9116 46.429 12.1982L49.5619 13.8693C50.0992 14.1559 50.7964 13.9696 51.1191 13.4532ZM74.9615 35.8698C75.2807 36.3806 75.1086 37.0244 74.5772 37.3079C74.0458 37.5914 73.3564 37.4071 73.0372 36.8963L71.1996 33.9554C70.8804 33.4446 71.0525 32.8008 71.5839 32.5173C72.1153 32.2338 72.8047 32.4181 73.1239 32.9289L74.9615 35.8698ZM56.6414 8.38103C57.1728 8.09755 57.3448 7.45369 57.0257 6.94292L55.1881 4.00199C54.8689 3.49123 54.1794 3.30697 53.6481 3.59045C53.1167 3.87392 52.9446 4.51779 53.2638 5.02855L55.1014 7.96948C55.4205 8.48025 56.11 8.6645 56.6414 8.38103Z" fill="url(#paint2_linear_94_2820)"/>
<rect width="2.81724" height="7.35703" rx="1.40862" transform="matrix(0.970256 0.24208 -0.27654 0.961002 27.39 53.248)" fill="url(#paint3_linear_94_2820)"/>
<rect width="2.81724" height="7.35703" rx="1.40862" transform="matrix(0.970256 0.24208 -0.27654 0.961002 36.56 53.248)" fill="url(#paint4_linear_94_2820)"/>
<rect width="2.81724" height="7.35703" rx="1.40862" transform="matrix(0.970256 0.24208 -0.27654 0.961002 45.7299 53.248)" fill="url(#paint5_linear_94_2820)"/>
<rect width="2.81724" height="7.35703" rx="1.40862" transform="matrix(0.970256 0.24208 -0.27654 0.961002 54.8999 53.248)" fill="url(#paint6_linear_94_2820)"/>
<rect width="2.81724" height="7.35703" rx="1.40862" transform="matrix(0.970256 0.24208 -0.27654 0.961002 32.4209 42.708)" fill="url(#paint7_linear_94_2820)"/>
<rect width="2.81724" height="7.35703" rx="1.40862" transform="matrix(0.970256 0.24208 -0.27654 0.961002 41.5909 42.708)" fill="url(#paint8_linear_94_2820)"/>
<rect width="2.81724" height="7.35703" rx="1.40862" transform="matrix(0.970256 0.24208 -0.27654 0.961002 50.7608 42.708)" fill="url(#paint9_linear_94_2820)"/>
<rect width="2.81724" height="7.35703" rx="1.40862" transform="matrix(0.970256 0.24208 -0.27654 0.961002 59.9308 42.708)" fill="url(#paint10_linear_94_2820)"/>
<g filter="url(#filter0_bd_94_2820)">
<mask id="path-11-outside-1_94_2820" maskUnits="userSpaceOnUse" x="15" y="11.9658" width="63" height="37" fill="black">
<rect fill="white" x="15" y="11.9658" width="63" height="37"/>
<path fill-rule="evenodd" clip-rule="evenodd" d="M58.9792 28.8799C58.9792 29.4005 58.9506 29.9149 58.8947 30.4218C60.6203 29.0253 62.874 28.18 65.3397 28.18C70.7686 28.18 75.1695 32.2779 75.1695 37.333C75.1695 42.3881 70.7686 46.4861 65.3397 46.4861C65.3367 46.4861 65.3337 46.4861 65.3306 46.4861H27.1282C27.1251 46.4861 27.122 46.4861 27.119 46.4861C27.1159 46.4861 27.1128 46.4861 27.1098 46.4861H27.0611V46.4859C21.4992 46.457 17 42.2496 17 37.0638C17 31.8971 21.4662 27.7016 26.9999 27.6422C27.6755 19.9844 34.5641 13.9658 42.9624 13.9658C51.8082 13.9658 58.9792 20.6431 58.9792 28.8799Z"/>
</mask>
<path fill-rule="evenodd" clip-rule="evenodd" d="M58.9792 28.8799C58.9792 29.4005 58.9506 29.9149 58.8947 30.4218C60.6203 29.0253 62.874 28.18 65.3397 28.18C70.7686 28.18 75.1695 32.2779 75.1695 37.333C75.1695 42.3881 70.7686 46.4861 65.3397 46.4861C65.3367 46.4861 65.3337 46.4861 65.3306 46.4861H27.1282C27.1251 46.4861 27.122 46.4861 27.119 46.4861C27.1159 46.4861 27.1128 46.4861 27.1098 46.4861H27.0611V46.4859C21.4992 46.457 17 42.2496 17 37.0638C17 31.8971 21.4662 27.7016 26.9999 27.6422C27.6755 19.9844 34.5641 13.9658 42.9624 13.9658C51.8082 13.9658 58.9792 20.6431 58.9792 28.8799Z" fill="url(#paint11_linear_94_2820)" shape-rendering="crispEdges"/>
<path d="M58.8947 30.4218L56.9067 30.2025L56.3737 35.0347L60.1528 31.9765L58.8947 30.4218ZM27.0611 46.4861H25.0611V48.4861H27.0611V46.4861ZM27.0611 46.4859H29.0611V44.4963L27.0716 44.486L27.0611 46.4859ZM26.9999 27.6422L27.0213 29.6421L28.8329 29.6226L28.9921 27.818L26.9999 27.6422ZM60.8826 30.6411C60.9465 30.0616 60.9792 29.474 60.9792 28.8799H56.9792C56.9792 29.3271 56.9546 29.7683 56.9067 30.2025L60.8826 30.6411ZM65.3397 26.18C62.4136 26.18 59.7163 27.184 57.6365 28.8671L60.1528 31.9765C61.5243 30.8666 63.3344 30.18 65.3397 30.18V26.18ZM77.1695 37.333C77.1695 31.0414 71.7364 26.18 65.3397 26.18V30.18C69.8008 30.18 73.1695 33.5145 73.1695 37.333H77.1695ZM65.3397 48.4861C71.7364 48.4861 77.1695 43.6247 77.1695 37.333H73.1695C73.1695 41.1516 69.8008 44.4861 65.3397 44.4861V48.4861ZM65.3306 48.4861C65.3314 48.4861 65.3323 48.4861 65.3339 48.4861C65.3353 48.4861 65.3375 48.4861 65.3397 48.4861V44.4861C65.3389 44.4861 65.3381 44.4861 65.3364 44.4861C65.335 44.4861 65.3329 44.4861 65.3306 44.4861V48.4861ZM65.3306 44.4861H27.1282V48.4861H65.3306V44.4861ZM27.119 48.4861C27.1212 48.4861 27.1234 48.4861 27.1248 48.4861C27.1264 48.4861 27.1274 48.4861 27.1282 48.4861V44.4861C27.1259 44.4861 27.1237 44.4861 27.1223 44.4861C27.1207 44.4861 27.1198 44.4861 27.119 44.4861V48.4861ZM27.1098 48.4861C27.1106 48.4861 27.1115 48.4861 27.1131 48.4861C27.1145 48.4861 27.1167 48.4861 27.119 48.4861V44.4861C27.1181 44.4861 27.1172 44.4861 27.1156 44.4861C27.1142 44.4861 27.112 44.4861 27.1098 44.4861V48.4861ZM27.1098 44.4861H27.0611V48.4861H27.1098V44.4861ZM29.0611 46.4861V46.4859H25.0611V46.4861H29.0611ZM15 37.0638C15 43.4817 20.5246 48.4519 27.0507 48.4859L27.0716 44.486C22.4738 44.462 19 41.0176 19 37.0638H15ZM26.9784 25.6423C20.4845 25.7121 15 30.6698 15 37.0638H19C19 33.1243 22.4479 29.6912 27.0213 29.6421L26.9784 25.6423ZM42.9624 11.9658C33.638 11.9658 25.7837 18.6698 25.0076 27.4664L28.9921 27.818C29.5673 21.2991 35.4901 15.9658 42.9624 15.9658V11.9658ZM60.9792 28.8799C60.9792 19.4065 52.776 11.9658 42.9624 11.9658V15.9658C50.8404 15.9658 56.9792 21.8796 56.9792 28.8799H60.9792Z" fill="url(#paint12_linear_94_2820)" mask="url(#path-11-outside-1_94_2820)"/>
</g>
<defs>
<filter id="filter0_bd_94_2820" x="0" y="0.96582" width="92.1696" height="66.5205" filterUnits="userSpaceOnUse" color-interpolation-filters="sRGB">
<feFlood flood-opacity="0" result="BackgroundImageFix"/>
<feGaussianBlur in="BackgroundImageFix" stdDeviation="5"/>
<feComposite in2="SourceAlpha" operator="in" result="effect1_backgroundBlur_94_2820"/>
<feColorMatrix in="SourceAlpha" type="matrix" values="0 0 0 0 0 0 0 0 0 0 0 0 0 0 0 0 0 0 127 0" result="hardAlpha"/>
<feOffset dy="4"/>
<feGaussianBlur stdDeviation="7.5"/>
<feComposite in2="hardAlpha" operator="out"/>
<feColorMatrix type="matrix" values="0 0 0 0 0 0 0 0 0 0 0 0 0 0 0 0 0 0 0.1 0"/>
<feBlend mode="normal" in2="effect1_backgroundBlur_94_2820" result="effect2_dropShadow_94_2820"/>
<feBlend mode="normal" in="SourceGraphic" in2="effect2_dropShadow_94_2820" result="shape"/>
</filter>
<linearGradient id="paint0_linear_94_2820" x1="71.2642" y1="10.3016" x2="60.9975" y2="32.9569" gradientUnits="userSpaceOnUse">
<stop offset="0.182844" stop-color="#FFE600"/>
<stop offset="0.980542" stop-color="#F09000"/>
</linearGradient>
<linearGradient id="paint1_linear_94_2820" x1="57.6183" y1="5.90296" x2="73.4523" y2="46.7477" gradientUnits="userSpaceOnUse">
<stop stop-color="#FFE600"/>
<stop offset="1" stop-color="#9C8D00"/>
</linearGradient>
<linearGradient id="paint2_linear_94_2820" x1="79.4375" y1="6.0737" x2="50.9734" y2="41.9052" gradientUnits="userSpaceOnUse">
<stop stop-color="#FFE600"/>
<stop offset="1" stop-color="#AA9900"/>
</linearGradient>
<linearGradient id="paint3_linear_94_2820" x1="0.313027" y1="6.47419" x2="2.56571" y2="0.783278" gradientUnits="userSpaceOnUse">
<stop stop-color="#3981EE"/>
<stop offset="1" stop-color="#92BDFF"/>
</linearGradient>
<linearGradient id="paint4_linear_94_2820" x1="0.313027" y1="6.47419" x2="2.56571" y2="0.783277" gradientUnits="userSpaceOnUse">
<stop stop-color="#3981EE"/>
<stop offset="1" stop-color="#92BDFF"/>
</linearGradient>
<linearGradient id="paint5_linear_94_2820" x1="0.313027" y1="6.47419" x2="2.56571" y2="0.783278" gradientUnits="userSpaceOnUse">
<stop stop-color="#3981EE"/>
<stop offset="1" stop-color="#92BDFF"/>
</linearGradient>
<linearGradient id="paint6_linear_94_2820" x1="0.313027" y1="6.47419" x2="2.56571" y2="0.783277" gradientUnits="userSpaceOnUse">
<stop stop-color="#3981EE"/>
<stop offset="1" stop-color="#92BDFF"/>
</linearGradient>
<linearGradient id="paint7_linear_94_2820" x1="0.313027" y1="6.47419" x2="2.56571" y2="0.783278" gradientUnits="userSpaceOnUse">
<stop stop-color="#3981EE"/>
<stop offset="1" stop-color="#92BDFF"/>
</linearGradient>
<linearGradient id="paint8_linear_94_2820" x1="0.313027" y1="6.47419" x2="2.56571" y2="0.783278" gradientUnits="userSpaceOnUse">
<stop stop-color="#3981EE"/>
<stop offset="1" stop-color="#92BDFF"/>
</linearGradient>
<linearGradient id="paint9_linear_94_2820" x1="0.313027" y1="6.47419" x2="2.56571" y2="0.783278" gradientUnits="userSpaceOnUse">
<stop stop-color="#3981EE"/>
<stop offset="1" stop-color="#92BDFF"/>
</linearGradient>
<linearGradient id="paint10_linear_94_2820" x1="0.313027" y1="6.47419" x2="2.56571" y2="0.783278" gradientUnits="userSpaceOnUse">
<stop stop-color="#3981EE"/>
<stop offset="1" stop-color="#92BDFF"/>
</linearGradient>
<linearGradient id="paint11_linear_94_2820" x1="35.0797" y1="13.8302" x2="47.4354" y2="47.2271" gradientUnits="userSpaceOnUse">
<stop stop-color="white"/>
<stop offset="0.708333" stop-color="#9DDCFF" stop-opacity="0.69"/>
</linearGradient>
<linearGradient id="paint12_linear_94_2820" x1="44.1982" y1="2.70452" x2="61.1687" y2="60.492" gradientUnits="userSpaceOnUse">
<stop stop-color="white"/>
<stop offset="0.713542" stop-color="#85C6EC" stop-opacity="0.71"/>
</linearGradient>
</defs>
</svg>
