<svg width="56" height="56" viewBox="0 0 56 56" fill="none" xmlns="http://www.w3.org/2000/svg">
<path d="M28 46.043C37.9651 46.043 46.0434 37.9647 46.0434 27.9995C46.0434 18.0344 37.9651 9.95605 28 9.95605C18.0348 9.95605 9.95648 18.0344 9.95648 27.9995C9.95648 37.9647 18.0348 46.043 28 46.043Z" fill="url(#paint0_linear_1803_460)" stroke="url(#paint1_linear_1803_460)" stroke-width="2"/>
<path fill-rule="evenodd" clip-rule="evenodd" d="M28 0C27.1595 0 26.4782 0.681307 26.4782 1.52174V6.3913C26.4782 7.23174 27.1595 7.91304 28 7.91304C28.8404 7.91304 29.5217 7.23174 29.5217 6.3913V1.52174C29.5217 0.681306 28.8404 0 28 0ZM28 48.087C27.1595 48.087 26.4782 48.7683 26.4782 49.6087V54.4783C26.4782 55.3187 27.1595 56 28 56C28.8404 56 29.5217 55.3187 29.5217 54.4783V49.6087C29.5217 48.7683 28.8404 48.087 28 48.087ZM39.9212 4.30828C40.3415 3.58044 41.2721 3.33106 42 3.75128C42.7278 4.1715 42.9772 5.10218 42.557 5.83001L40.1222 10.0472C39.702 10.775 38.7713 11.0244 38.0435 10.6042C37.3156 10.184 37.0663 9.25328 37.4865 8.52544L39.9212 4.30828ZM17.9565 45.3958C17.2287 44.9756 16.298 45.225 15.8778 45.9528L13.443 50.17C13.0228 50.8978 13.2721 51.8285 14 52.2487C14.7278 52.6689 15.6585 52.4195 16.0787 51.6917L18.5135 47.4745C18.9337 46.7467 18.6843 45.816 17.9565 45.3958ZM50.17 13.443C50.8978 13.0228 51.8285 13.2722 52.2487 14C52.6689 14.7278 52.4195 15.6585 51.6917 16.0787L47.4745 18.5135C46.7467 18.9337 45.816 18.6843 45.3958 17.9565C44.9756 17.2287 45.225 16.298 45.9528 15.8778L50.17 13.443ZM10.6042 38.0435C10.184 37.3156 9.25329 37.0663 8.52545 37.4865L4.30828 39.9213C3.58045 40.3415 3.33107 41.2722 3.75129 42C4.17151 42.7278 5.10219 42.9772 5.83002 42.557L10.0472 40.1222C10.775 39.702 11.0244 38.7713 10.6042 38.0435ZM54.4783 26.4783C55.3187 26.4783 56 27.1596 56 28C56 28.8404 55.3187 29.5217 54.4783 29.5217H49.6087C48.7683 29.5217 48.087 28.8404 48.087 28C48.087 27.1596 48.7683 26.4783 49.6087 26.4783H54.4783ZM7.91304 28C7.91304 27.1596 7.23174 26.4783 6.3913 26.4783H1.52174C0.681306 26.4783 3.67363e-08 27.1596 0 28C-3.67368e-08 28.8404 0.681306 29.5217 1.52174 29.5217H6.3913C7.23174 29.5217 7.91304 28.8404 7.91304 28ZM51.6917 39.9213C52.4196 40.3415 52.6689 41.2722 52.2487 42C51.8285 42.7278 50.8978 42.9772 50.17 42.557L45.9528 40.1222C45.225 39.702 44.9756 38.7713 45.3958 38.0435C45.816 37.3156 46.7467 37.0663 47.4745 37.4865L51.6917 39.9213ZM10.6042 17.9565C11.0244 17.2287 10.775 16.298 10.0472 15.8778L5.83002 13.443C5.10218 13.0228 4.1715 13.2722 3.75129 14C3.33107 14.7278 3.58044 15.6585 4.30828 16.0787L8.52545 18.5135C9.25328 18.9337 10.184 18.6843 10.6042 17.9565ZM42.557 50.17C42.9772 50.8978 42.7278 51.8285 42 52.2487C41.2722 52.6689 40.3415 52.4195 39.9213 51.6917L37.4865 47.4745C37.0663 46.7467 37.3156 45.816 38.0435 45.3958C38.7713 44.9756 39.702 45.225 40.1222 45.9528L42.557 50.17ZM17.9565 10.6042C18.6843 10.1839 18.9337 9.25327 18.5135 8.52543L16.0787 4.30826C15.6585 3.58043 14.7278 3.33105 14 3.75127C13.2721 4.17148 13.0228 5.10217 13.443 5.83L15.8778 10.0472C16.298 10.775 17.2287 11.0244 17.9565 10.6042Z" fill="url(#paint2_linear_1803_460)"/>
<defs>
<linearGradient id="paint0_linear_1803_460" x1="37.5869" y1="13.3908" x2="22.1177" y2="45.176" gradientUnits="userSpaceOnUse">
<stop offset="0.182844" stop-color="#FFE600"/>
<stop offset="0.980542" stop-color="#F09000"/>
</linearGradient>
<linearGradient id="paint1_linear_1803_460" x1="19.2941" y1="7.05836" x2="43.2942" y2="64.7055" gradientUnits="userSpaceOnUse">
<stop stop-color="#FFE600"/>
<stop offset="1" stop-color="#9C8D00"/>
</linearGradient>
<linearGradient id="paint2_linear_1803_460" x1="48.5434" y1="7.30434" x2="6.99996" y2="56" gradientUnits="userSpaceOnUse">
<stop stop-color="#FFE600"/>
<stop offset="1" stop-color="#AA9900"/>
</linearGradient>
</defs>
</svg>
